<svg width="32" height="32" viewBox="0 0 32 32" fill="none" xmlns="http://www.w3.org/2000/svg">
<rect width="32" height="32" fill="black"/>
<path d="M3.02697 6.74395H14.547V8.97595H9.89097V24.0959H7.56297V8.97595H3.02697V6.74395ZM27.7003 9.83995C27.1083 9.53595 26.4603 9.27195 25.7563 9.04795C25.0523 8.82395 24.3643 8.71195 23.6923 8.71195C22.7643 8.71195 22.0203 8.92795 21.4603 9.35995C20.9163 9.79195 20.6443 10.3679 20.6443 11.0879C20.6443 11.6319 20.8203 12.0959 21.1723 12.4799C21.5243 12.8479 21.9883 13.1679 22.5643 13.4399C23.1403 13.7119 23.7403 13.9679 24.3643 14.2079C24.9083 14.4159 25.4443 14.6479 25.9723 14.9039C26.5003 15.1599 26.9723 15.4799 27.3883 15.8639C27.8203 16.2479 28.1563 16.7199 28.3963 17.2799C28.6523 17.8399 28.7803 18.5359 28.7803 19.3679C28.7803 20.2799 28.5483 21.1119 28.0843 21.8639C27.6363 22.6159 26.9883 23.2079 26.1403 23.6399C25.2923 24.0719 24.2843 24.2879 23.1163 24.2879C22.3483 24.2879 21.6123 24.1999 20.9083 24.0239C20.2203 23.8479 19.5803 23.6239 18.9883 23.3519C18.3963 23.0639 17.8683 22.7679 17.4043 22.4639L18.4363 20.6399C18.8203 20.9119 19.2603 21.1759 19.7563 21.4319C20.2523 21.6719 20.7723 21.8719 21.3163 22.0319C21.8603 22.1759 22.3883 22.2479 22.9003 22.2479C23.4443 22.2479 23.9803 22.1519 24.5083 21.9599C25.0523 21.7519 25.5003 21.4399 25.8523 21.0239C26.2043 20.6079 26.3803 20.0559 26.3803 19.3679C26.3803 18.7759 26.2203 18.2879 25.9003 17.9039C25.5963 17.5039 25.1883 17.1679 24.6763 16.8959C24.1643 16.6079 23.6203 16.3519 23.0443 16.1279C22.5003 15.9199 21.9483 15.6959 21.3883 15.4559C20.8283 15.1999 20.3083 14.8959 19.8283 14.5439C19.3483 14.1759 18.9643 13.7279 18.6763 13.1999C18.3883 12.6719 18.2443 12.0319 18.2443 11.2799C18.2443 10.3679 18.4603 9.57595 18.8923 8.90395C19.3403 8.21595 19.9483 7.67995 20.7163 7.29595C21.4843 6.89595 22.3643 6.67995 23.3563 6.64795C24.4763 6.64795 25.4603 6.78395 26.3083 7.05595C27.1723 7.32795 27.9323 7.66395 28.5883 8.06395L27.7003 9.83995Z" fill="white"/>
</svg>
